<svg width="150" height="36" viewBox="0 0 150 36" fill="none" xmlns="http://www.w3.org/2000/svg">
<path d="M26.3478 33.8322C24.0024 34.8731 21.3188 35.394 18.2962 35.394C15.7141 35.394 13.3619 34.9616 11.2367 34.0966C9.11155 33.2316 7.28582 32.0304 5.75858 30.4931C4.23134 28.9558 3.04317 27.1295 2.19309 25.0152C1.34302 22.9009 0.918945 20.594 0.918945 18.0953V17.999C0.918945 15.5967 1.35171 13.3468 2.21724 11.2482C3.08277 9.15063 4.28737 7.30861 5.83006 5.72215C7.37179 4.13667 9.19849 2.88736 11.3082 1.97421C13.417 1.06106 15.7305 0.60498 18.2499 0.60498C19.7288 0.60498 21.0754 0.709172 22.2877 0.917554C23.4991 1.12594 24.6254 1.4218 25.6639 1.80613C26.7023 2.19046 27.678 2.67111 28.5918 3.2481C29.5047 3.82508 30.3866 4.48168 31.2367 5.2179L26.656 10.8403C26.0261 10.2957 25.3963 9.81509 24.7674 9.39833C24.1376 8.98255 23.4846 8.62967 22.8074 8.34167C22.1303 8.05367 21.398 7.82956 20.6117 7.66934C19.8244 7.50912 18.9589 7.42951 18.0142 7.42951C16.6917 7.42951 15.4562 7.71063 14.3067 8.27287C13.1571 8.83412 12.1496 9.58902 11.2841 10.5366C10.4176 11.4841 9.74138 12.5919 9.25355 13.8599C8.76476 15.1279 8.52133 16.4843 8.52133 17.9292V18.0256C8.52133 19.5668 8.76476 20.9871 9.25355 22.2876C9.74138 23.588 10.434 24.7203 11.3314 25.6826C12.2288 26.6459 13.2827 27.392 14.495 27.9227C15.7064 28.4525 17.052 28.717 18.5329 28.717C21.2396 28.717 23.5223 28.0397 25.3799 26.6842V21.8452H18.0605V15.4542H32.4162V30.0616C30.716 31.535 28.6932 32.7932 26.3478 33.8331V33.8322Z" fill="#8F9EBA"/>
<path d="M58.4354 27.2013C57.7428 28.8192 56.7826 30.2366 55.5548 31.4535C54.327 32.6713 52.879 33.6327 51.2107 34.3364C49.5415 35.0412 47.7167 35.3931 45.7325 35.3931C43.7484 35.3931 41.97 35.0481 40.3017 34.36C38.6325 33.672 37.1922 32.7264 35.9808 31.5252C34.7685 30.3241 33.816 28.9146 33.1234 27.2966C32.4308 25.6797 32.085 23.9419 32.085 22.0832V21.9868C32.085 20.1291 32.4308 18.3912 33.1234 16.7733C33.816 15.1564 34.7762 13.739 36.004 12.5212C37.2318 11.3043 38.6798 10.343 40.3481 9.6382C42.0164 8.93442 43.8421 8.58154 45.8262 8.58154C47.8104 8.58154 49.5878 8.92655 51.2571 9.61461C52.9253 10.3036 54.3656 11.2482 55.578 12.4494C56.7893 13.6505 57.7418 15.0611 58.4354 16.678C59.128 18.2959 59.4738 20.0337 59.4738 21.8915V21.9878C59.4738 23.8465 59.127 25.5844 58.4354 27.2013ZM52.3911 21.9878C52.3911 21.0265 52.2337 20.1222 51.9188 19.2729C51.6039 18.4247 51.1469 17.6717 50.549 17.0142C49.9501 16.3576 49.242 15.8366 48.4238 15.4523C47.6046 15.0679 46.7072 14.8753 45.7325 14.8753C44.6941 14.8753 43.7725 15.0601 42.9698 15.4277C42.1671 15.7963 41.4822 16.3005 40.9161 16.9414C40.349 17.5823 39.9163 18.3274 39.6178 19.1756C39.3183 20.0249 39.1696 20.9292 39.1696 21.8905V21.9868C39.1696 22.9481 39.327 23.8534 39.6419 24.7017C39.9559 25.551 40.4128 26.3039 41.0117 26.9605C41.6097 27.6171 42.31 28.138 43.1128 28.5224C43.9155 28.9067 44.8197 29.0994 45.8282 29.0994C46.8367 29.0994 47.7882 28.9155 48.5909 28.5469C49.3937 28.1793 50.0786 27.6741 50.6446 27.0332C51.2117 26.3923 51.6435 25.6483 51.9429 24.799C52.2414 23.9507 52.3911 23.0454 52.3911 22.0841V21.9878Z" fill="#8F9EBA"/>
<path d="M82.8011 34.817L66.7926 13.4342V34.817H59.6152V1.18195H66.3212L81.8099 21.8914V1.18195H88.9873V34.817H82.8011Z" fill="white"/>
<path d="M113.613 23.5733C113.597 23.8299 113.574 24.1346 113.543 24.4865H95.9288C96.2747 26.1526 96.9914 27.4097 98.0772 28.259C99.163 29.1082 100.51 29.5329 102.115 29.5329C103.311 29.5329 104.381 29.3245 105.326 28.9077C106.271 28.4919 107.245 27.8186 108.254 26.8898L112.362 30.5895C111.165 32.0954 109.717 33.2729 108.018 34.1212C106.318 34.9695 104.318 35.3951 102.021 35.3951C100.133 35.3951 98.3767 35.0747 96.7557 34.4338C95.1338 33.7929 93.7331 32.8808 92.5527 31.6953C91.3722 30.5109 90.4516 29.1092 89.7899 27.4913C89.1292 25.8744 88.7979 24.0727 88.7979 22.0852V21.9888C88.7979 20.1625 89.105 18.4336 89.7184 16.7999C90.3328 15.1663 91.1897 13.741 92.2919 12.5232C93.3931 11.3063 94.7078 10.345 96.235 9.64021C97.7613 8.93643 99.4537 8.58356 101.311 8.58356C103.42 8.58356 105.247 8.96789 106.79 9.73654C108.331 10.5052 109.615 11.5383 110.638 12.8357C111.661 14.1332 112.416 15.6224 112.904 17.3042C113.392 18.986 113.636 20.7395 113.636 22.5658V22.6622C113.636 23.015 113.629 23.3188 113.613 23.5753V23.5733ZM104.948 15.9575C104.034 14.9481 102.823 14.4438 101.312 14.4438C99.8015 14.4438 98.5805 14.9412 97.6531 15.933C96.7238 16.9267 96.1182 18.2556 95.8351 19.9207H106.649C106.429 18.2871 105.862 16.966 104.949 15.9566L104.948 15.9575Z" fill="white"/>
<path d="M129.928 34.8171L124.829 26.7924L119.729 34.8171H112.221L121.098 21.747L112.551 9.06122H120.248L124.97 16.5571L129.739 9.06122H137.248L128.701 21.6025L137.625 34.8161H129.928V34.8171Z" fill="white"/>
<path d="M146.834 34.8407C145.92 35.112 144.866 35.2486 143.671 35.2486C142.568 35.2486 141.569 35.1287 140.672 34.8879C139.775 34.6471 139.003 34.2234 138.359 33.614C137.713 33.0056 137.209 32.2133 136.848 31.2353C136.485 30.2583 136.305 29.0178 136.305 27.5109V15.3058H133.282V9.05927H136.305V2.47949H143.482V9.06222H149.432V15.3088H143.482V26.3127C143.482 27.9788 144.253 28.8114 145.796 28.8114C147.054 28.8114 148.235 28.5076 149.337 27.8982V33.7605C148.582 34.2097 147.747 34.5694 146.834 34.8417V34.8407Z" fill="white"/>
</svg>
